<svg width="21" height="21" viewBox="0 0 21 21" fill="none" xmlns="http://www.w3.org/2000/svg">
<path fill-rule="evenodd" clip-rule="evenodd" d="M9.41623 2.16669C8.28672 2.16678 7.17361 2.43699 6.16977 2.95477C5.16593 3.47254 4.30047 4.22287 3.64559 5.14315C2.99071 6.06343 2.5654 7.12698 2.40515 8.24506C2.2449 9.36314 2.35435 10.5033 2.72438 11.5705C3.0944 12.6377 3.71427 13.6009 4.53226 14.3798C5.35025 15.1587 6.34265 15.7307 7.42665 16.048C8.51066 16.3654 9.65485 16.4189 10.7637 16.2041C11.8726 15.9893 12.9141 15.5125 13.8012 14.8134L16.8446 17.8567C17.0017 18.0085 17.2122 18.0925 17.4307 18.0906C17.6492 18.0887 17.8582 18.001 18.0127 17.8465C18.1672 17.692 18.2549 17.483 18.2568 17.2645C18.2587 17.046 18.1747 16.8355 18.0229 16.6784L14.9796 13.635C15.8029 12.5905 16.3155 11.3354 16.4588 10.0131C16.6021 8.6909 16.3702 7.35504 15.7897 6.15843C15.2093 4.96183 14.3036 3.95282 13.1765 3.24688C12.0493 2.54094 10.7462 2.1666 9.41623 2.16669ZM3.99956 9.25002C3.99956 7.81343 4.57024 6.43568 5.58607 5.41986C6.60189 4.40404 7.97964 3.83335 9.41623 3.83335C10.8528 3.83335 12.2306 4.40404 13.2464 5.41986C14.2622 6.43568 14.8329 7.81343 14.8329 9.25002C14.8329 10.6866 14.2622 12.0644 13.2464 13.0802C12.2306 14.096 10.8528 14.6667 9.41623 14.6667C7.97964 14.6667 6.60189 14.096 5.58607 13.0802C4.57024 12.0644 3.99956 10.6866 3.99956 9.25002Z" fill="#ffffff"/>
</svg>